#format: frame checksums
#version: 2
#hash: MD5
#tb 0: 1/8000
#media_type 0: audio
#codec_id 0: pcm_s16le
#sample_rate 0: 8000
#channel_layout_name 0: mono
#stream#, dts,        pts, duration,     size, hash
0,          0,          0,      512,     1024, 749c5e4be5c1f4ff349eb02131276b5a
0,        512,        512,      512,     1024, 659f1f69a62932f4b19b93cbc4fd466f
0,       1024,       1024,      512,     1024, a2f0e7a3fb2103cad1663813ef8c4b23
0,       1536,       1536,      512,     1024, f3a95213bd5263d2cb4e0b44c60f2468
0,       2048,       2048,      512,     1024, 961812c38705eceffd5a14d581745067
0,       2560,       2560,      512,     1024, 3fad2ce9afc085a93ae1a274b508d9fb
0,       3072,       3072,      512,     1024, 7171866dc4907a9f4d01ff352b83757e
0,       3584,       3584,      512,     1024, 71f962e6098d29f876c39e42479f9514
0,       4096,       4096,      512,     1024, 7d00e2bcf079174baa7c3c8d8b68a392
0,       4608,       4608,      512,     1024, 98792dd0d76268a36e598c5a1eef77fe
0,       5120,       5120,      512,     1024, e32311c27456ddc08ce1fbb5cb25f2dc
0,       5632,       5632,      512,     1024, 33e66408679001a65b9ca55337ffd42c
0,       6144,       6144,      512,     1024, d088933dab6adda9a8fcde44adb52ddc
0,       6656,       6656,      512,     1024, a90852a8ed3a6de8216d3314d0ec0d05
0,       7168,       7168,      512,     1024, 1c69d6cef064577947c18fafe8865eb1
0,       7680,       7680,      512,     1024, a9f74a8e770fd425897f73d7123798d4
0,       8192,       8192,      512,     1024, b92cb87f5343a41dad1eeabc89d104a0
0,       8704,       8704,      512,     1024, 4d6409f17fcb4260d810651403a5d554
0,       9216,       9216,      512,     1024, a7210e34569baebc404058eb9c21d5b2
0,       9728,       9728,      512,     1024, 5e5fbc03814ab9879c8873f88442747f
0,      10240,      10240,      512,     1024, de5a6215fb670e8a1b1898cf14e90c4b
0,      10752,      10752,      512,     1024, 3247c557c5bec179c71cd614d0eaa8d8
0,      11264,      11264,      512,     1024, a21cd72249d424beeeede154bc230f9f
0,      11776,      11776,      512,     1024, bb8fce917d94e301420a903b7b3963ec
0,      12288,      12288,      512,     1024, 20473b2653fd38d79869037cbf919fec
0,      12800,      12800,      512,     1024, 750bf8ef688e55f8273a021483dd7800
0,      13312,      13312,      512,     1024, ca9243b73eb7f86fcfb8e82b6b0bd03f
0,      13824,      13824,      512,     1024, c8aa208eb52e95fd85ba726fd06f9587
0,      14336,      14336,      512,     1024, 2269b08676d5f78285c04ed05d79dba1
0,      14848,      14848,      512,     1024, e4cdfc472e1bea5e440ee48b1c2af275
0,      15360,      15360,      512,     1024, 898f815706179c59dc69b1c4a53a0dbe
0,      15872,      15872,      512,     1024, 149821d570ef126ba0b17aed95884a51
0,      16384,      16384,      512,     1024, b98a25df1e1912df1721cb954ad31ba5
0,      16896,      16896,      512,     1024, ef930bb637c69eea63eee703c515ef85
0,      17408,      17408,      512,     1024, 516779d8bd2de77e9db2327247e61cf6
0,      17920,      17920,      512,     1024, cd86454ae311fd57ac925f5625fcaf6b
0,      18432,      18432,      512,     1024, 31c2ed57d3cec33d2cd04823999142ae
0,      18944,      18944,      512,     1024, 0d724ae593bf5aec5ade41020bc62e76
0,      19456,      19456,      512,     1024, 7a198086a40ef08d6019e4d38d21519f
0,      19968,      19968,      512,     1024, 489b864db32c1c810911e09a5674699c
0,      20480,      20480,      512,     1024, 224f2a23e663863d51a3bd039c891c85
0,      20992,      20992,      512,     1024, 87200ae5181411aa1230822a099ec2dd
0,      21504,      21504,      512,     1024, 0c630e09145c82d70ef663356508877d
0,      22016,      22016,      512,     1024, 5c1bcd5366036374c8441bb0f3bcd49f
0,      22528,      22528,      512,     1024, 2431f1716db7f2a5355ef905badca230
0,      23040,      23040,      512,     1024, d2ba9f7bf7523c6a85c9904364e371f7
0,      23552,      23552,      512,     1024, 60ebc46511400601cd7c95893a080056
0,      24064,      24064,      512,     1024, 395a751ef3a84b5744cd903a7130efa4
0,      24576,      24576,      512,     1024, 82a3a880795d075d7d6ec9bfac25aae4
0,      25088,      25088,      512,     1024, 2b4b03696b97ebc4ca0f3e9932a6bac7
0,      25600,      25600,      512,     1024, 1800cfa8f9e57851d6cda560d0a0abc7
0,      26112,      26112,      512,     1024, f0cb6c7998d10cd11c51804ab58c1d46
0,      26624,      26624,      512,     1024, 1ddfc6c6048e71e8ba746c2fdf93c102
0,      27136,      27136,      512,     1024, 76e6c9a40dbcaa32ece535c01dce67f1
0,      27648,      27648,      512,     1024, 4401c5ad37211c87da978633f8e85fb0
0,      28160,      28160,      512,     1024, 827a0317c3270e218882a2ce57e76abe
0,      28672,      28672,      512,     1024, 0a41ac7d14421b4e466593bbbe9692d2
0,      29184,      29184,      512,     1024, 2bc1f8444eb100115f91a17972658242
0,      29696,      29696,      512,     1024, 893960925b51f34de6ab38b56e14dcbf
0,      30208,      30208,      512,     1024, a9e6645ddffe7213e60c55d384092164
0,      30720,      30720,      512,     1024, 396c2457f72053a5aa2fce375e963d84
0,      31232,      31232,      512,     1024, 3b0fc1f02d2bedab9e10f2f06a60aa26
0,      31744,      31744,      512,     1024, b7d734d9b982a0f6fa5807a4170f6749
0,      32256,      32256,      512,     1024, 3934a76e0c8a54e679d5b541a745a86d
0,      32768,      32768,      512,     1024, f6ea520b961d1ce597c86fd8625111bb
0,      33280,      33280,      512,     1024, 649e15f305ee7e687e9f9d77d1573856
0,      33792,      33792,      512,     1024, a0beb551f32c395a83353b7cc116b08b
0,      34304,      34304,      512,     1024, 66fbfa509e4f8fb3dc66c8983e461a73
0,      34816,      34816,      512,     1024, f8dfdf2244709cfcaae58bd294d0624d
0,      35328,      35328,      512,     1024, a14625a11f391717ed2da0bf195d1164
0,      35840,      35840,      512,     1024, 26e41f5729a9ce714bb4e9925aa07eea
0,      36352,      36352,      512,     1024, 05c6d65caa674725111cceb207b266e6
0,      36864,      36864,      512,     1024, 697a65902580084bbdec9c1f4435e16c
0,      37376,      37376,      512,     1024, 9684c9b9d2da6e69b126e535a0004889
0,      37888,      37888,      512,     1024, 3ef8bf7e81f487e0c5fefa900c50efea
0,      38400,      38400,      512,     1024, 15ca572f749895fcae2626cdc3c340ae
0,      38912,      38912,      512,     1024, 757c65ecd522697e9880ab186fb651fd
0,      39424,      39424,      512,     1024, 1a7e869d934d39da1f17a6823445a6eb
0,      39936,      39936,      512,     1024, 9a89baab0c01c1b085232f76f9395db3
0,      40448,      40448,      512,     1024, dc4066c293b94dd84f5890f10a4c184f
0,      40960,      40960,      512,     1024, 55bad4702df6a26c80908217af0e147b
0,      41472,      41472,      512,     1024, f0e7e410bdd31ce4365b35036c8e997a
0,      41984,      41984,      512,     1024, c58d443beb8ef7b27d8b03b8b89f42c3
0,      42496,      42496,      512,     1024, bdb7d6557f15a8eee4e4406849d2026c
0,      43008,      43008,      512,     1024, 7ba18a856a2fe45cfed32f996d3e9601
0,      43520,      43520,      512,     1024, 8baaddd67dac730e2488496b5c62dd40
0,      44032,      44032,      512,     1024, e2c79aa110ef523696452deaf2e710dd
0,      44544,      44544,      512,     1024, 7bd319b1fbc025f9073ffd329f8a1f87
0,      45056,      45056,      512,     1024, 61e77bdb54fdc5d2062c038b708886b5
0,      45568,      45568,      512,     1024, a4f945561f60b058e9519a5345421376
0,      46080,      46080,      512,     1024, 9bd001832139195adfe8485006162177
0,      46592,      46592,      512,     1024, 39abce4fefce06b9041b6aa3a8a38c8f
0,      47104,      47104,      512,     1024, e686c077c2bd7a05bff75001013fe96d
0,      47616,      47616,      384,      768, 0ee6c34845791363944132d79f522e50
